<?xml version="1.0" encoding="UTF-8"?>
<svg id="Layer_1" xmlns="http://www.w3.org/2000/svg" version="1.1" viewBox="0 0 500.16 500.16">
  <!-- Generator: Adobe Illustrator 30.4.0, SVG Export Plug-In . SVG Version: 2.1.4 Build 226)  -->
  <defs>
    <style>
      .st0 {
        fill: #032041;
      }

      .st1 {
        fill: #233543;
      }

      .st2 {
        fill: #119fa3;
      }

      .st3 {
        fill: #0d7377;
      }

      .st4 {
        fill: #0e828c;
      }

      .st5 {
        fill: #11999e;
      }

      .st6 {
        fill: #01002a;
      }

      .st7 {
        fill: #000027;
      }

      .st8 {
        fill: #fefefe;
      }
    </style>
  </defs>
  <path class="st8" d="M367.73,193.2l-104.84.05c-.95.57-1.66,1.93-2.04,2.86l-2.78,6.88-3.54,7.5,43.18.09-43.9.4,7.73-18.21,106.2.42Z"/>
  <path class="st8" d="M370.55,191.92l1.97-1.99c-.48,1.19-.72,1.64-1.97,1.99Z"/>
  <path class="st8" d="M301.21,213.6l-1.77-2.1c.94.21,1.63,1.09,1.77,2.1Z"/>
  <path class="st8" d="M282.33,262.4l1.97-1.84c-.33.94-.95,1.58-1.97,1.84Z"/>
  <path class="st8" d="M391.22,144.01l.21-2.98c.55.97.22,1.92-.21,2.98Z"/>
  <path class="st8" d="M279.94,263.67l-48.49.12-3.38,8.32-5.14,12.14-2.21,5.13-1.32,2.94-5.79,14.19-3.31,7.86-1.31,3-3.92,9.08-3.67,9.2-2.53,5.71-3.73,8.68c-.56,1.31-1.01,2.76-2,3.89l-47.4-.02c-3.53-1.36-5.38-5.41-3.91-8.73l2.49-5.84,5.42-13.6,4.99-11.93,5.32-13.15,6.52-16.58,1.85-3.43c1.8-3.35,2.86-7.07,4.25-10.63l5.12-13.06,3.92-9.19,2.57-5.99,3.6-8.28,3.85-9.64,4.86-11.11,4.08-10.12,4.17-10.3-101.33-.08,102.46-.39-30.18,72.14c-2.41,5.76-3.77,11.44-6.74,16.8l-3.21,7.37-7.44,18.46-12.86,31.33c-1.21,2.94-2.78,5.81-3.41,8.79-.77,3.68,2.09,6.69,5.59,6.7h43.59c1.72,0,2.25-1.12,2.86-2.55l36.84-87.6,48.95.41Z"/>
  <polygon class="st3" points="279.53 257.56 233.5 257.57 251.61 215.82 296.54 215.81 279.53 257.56"/>
  <g>
    <path class="st5" d="M234.01,143.86l42.87.19-4.92,10.96-21.09,48.41-22.81,52.03-38.48,91.38-.64-.15-39.7.05c-.22-.12-.84-.49-.86-.46-.05.05-.2.78-.22.92l-.41-.99,25.03-60.27,54.3-129.2,5.74-13.07,1.21.21Z"/>
    <polygon class="st4" points="277.65 143.02 276.88 144.06 234.56 143.34 234.01 143.86 232.81 143.66 233.57 142.8 277.65 143.02"/>
    <path class="st0" d="M277.29,142.42c.07.05.44.49.36.6l-44.07-.22s0-.21-.03-.38h43.75Z"/>
    <path class="st0" d="M189.43,347.77l-.03.85-42.25-.04c-.47-.72-.91-1.19-.69-1.36l.78-.6.15,1.05,42.04.11Z"/>
    <polygon class="st7" points="277.29 142.42 233.54 142.43 234.07 141.94 276.64 141.94 277.29 142.42"/>
    <polygon class="st4" points="148.14 347.19 188.41 347.19 188.94 346.67 189.58 346.82 189.43 347.77 147.39 347.67 147.24 346.62 147.74 346.2 148.14 347.19"/>
    <path class="st7" d="M189.4,348.63l-42.25-.04,42.25.04Z"/>
    <polygon class="st2" points="276.88 144.06 234.01 143.86 234.56 143.34 276.88 144.06"/>
    <path class="st2" d="M188.94,346.67l-.52.51h-40.27c.02-.14.18-.87.22-.92.02-.03.65.34.86.46l39.7-.05Z"/>
  </g>
  <g>
    <path class="st6" d="M387.94,137.15c1.71,1.13,2.55,2.23,3.49,3.89l-.21,2.98-18.71,45.91-1.97,1.99c-.94.27-2.07.71-2.81,1.28l-106.2-.42-7.73,18.21,43.9-.4c.46.52.95.73,1.73.9l1.77,2.1c.29,2.06.44,3.85-.35,5.78l-14.5,35.36-2.06,5.82-1.97,1.84c-.93.24-1.71.54-2.4,1.27l-48.95-.41-36.84,87.6c-.6,1.44-1.14,2.56-2.86,2.56h-43.59c-3.5,0-6.35-3.03-5.59-6.7.62-2.98,2.2-5.86,3.41-8.79l12.86-31.33,7.44-18.46,3.21-7.37c2.97-5.36,4.33-11.05,6.74-16.8l30.18-72.14-102.46.39c-4.57-2.57-4.34-6.69-2.27-11.46l6.17-14.24,2.42-5.59,2.31-5.43,1.83-4.34,1.67-4.07,1.57-3.62,1.74-3.59,2.02-1.92,2.12-.82h264.86ZM208.11,186.9l18.81-44.85h-103.02s-19.14,44.83-19.14,44.83l103.35.02ZM233.54,142.43c.03.16.08.33.03.38l-.77.86-5.74,13.07-54.3,129.2-25.03,60.27-.5.42-.78.6c-.22.17.22.64.69,1.36l42.25.04.03-.85.15-.95,38.48-91.38,22.81-52.03,21.09-48.41,4.92-10.96.77-1.03c.08-.11-.28-.56-.36-.6l-.65-.48h-42.58s-.53.48-.53.48ZM264.25,187.01l103.67.02,16.23-39.69,2.37-5.33h-102.91s-4.68,11.2-4.68,11.2l-4.01,8.95-3.65,8.48-3.91,9.09-3.11,7.29ZM279.53,257.56l17.01-41.75-44.94.02-18.11,41.74h46.03Z"/>
    <polygon class="st8" points="387.94 137.15 123.09 137.15 123.41 136.67 387.7 136.67 387.94 137.15"/>
    <path class="st8" d="M120.96,137.97l-2.02,1.92c.49-1.01.97-1.51,2.02-1.92Z"/>
    <polygon class="st1" points="208.11 186.9 104.75 186.88 123.89 142.04 226.91 142.05 208.11 186.9"/>
    <polygon class="st3" points="264.25 187.01 267.36 179.72 271.28 170.64 274.93 162.15 278.93 153.2 283.61 142.01 386.52 142.01 384.15 147.34 367.92 187.03 264.25 187.01"/>
  </g>
</svg>